<?xml version="1.0" encoding="utf-8"?>
<!-- Generator: Adobe Illustrator 22.1.0, SVG Export Plug-In . SVG Version: 6.00 Build 0)  -->
<svg version="1.1" id="Layer_1" xmlns="http://www.w3.org/2000/svg" xmlns:xlink="http://www.w3.org/1999/xlink" x="0px" y="0px"
	 viewBox="0 0 534.2 60.7" style="enable-background:new 0 0 534.2 60.7;" xml:space="preserve">
<style type="text/css">
	.st0{enable-background:new    ;}
	.st1{fill:#244A8F;}
	.st2{fill:#8CA6B6;}
	.st3{fill:#00517D;}
	.st4{fill:#F0CC16;}
	.st5{fill:none;stroke:#CDD8DF;stroke-width:1.25;stroke-miterlimit:10;}
	.st6{fill:#27AAE1;}
</style>
<title>Asset 12</title>
<g id="Layer_2_1_">
	<g id="Layer_1-2">
		<g class="st0">
			<path class="st1" d="M277.3,10.6c2.8,0,5,0.7,6.6,2c1.6,1.3,2.3,3.3,2.3,5.8c0,2.6-0.8,4.5-2.3,5.9c-1.6,1.3-3.7,2-6.6,2h-5.6
				v7.8c0,0.3-0.1,0.5-0.3,0.7S271,35,270.7,35h-2.8c-0.3,0-0.5-0.1-0.7-0.3c-0.2-0.2-0.3-0.4-0.3-0.7V11.5c0-0.3,0.1-0.5,0.3-0.7
				c0.2-0.2,0.4-0.3,0.7-0.3H277.3z M271.7,21.9h5.4c1.3,0,2.4-0.3,3.2-0.8c0.8-0.5,1.2-1.4,1.2-2.7s-0.4-2.2-1.2-2.7
				c-0.8-0.5-1.9-0.8-3.2-0.8h-5.4V21.9z"/>
		</g>
		<g class="st0">
			<path class="st1" d="M298.1,21.1c-1.4,0-2.4,0.3-3,0.9c-0.6,0.6-0.9,1.6-0.9,3v9.1c0,0.3-0.1,0.5-0.3,0.7
				c-0.2,0.2-0.4,0.3-0.7,0.3h-2.7c-0.3,0-0.5-0.1-0.7-0.3s-0.3-0.4-0.3-0.7V17.8c0-0.3,0.1-0.5,0.3-0.7s0.4-0.3,0.7-0.3h2.7
				c0.3,0,0.5,0.1,0.7,0.3c0.2,0.2,0.3,0.4,0.3,0.7v0.8c0.6-0.6,1.3-1,1.9-1.3s1.6-0.5,2.7-0.5h1.6c0.3,0,0.5,0.1,0.7,0.3
				c0.2,0.2,0.3,0.4,0.3,0.7v2.3c0,0.3-0.1,0.5-0.3,0.7c-0.2,0.2-0.4,0.3-0.7,0.3H298.1z"/>
		</g>
		<g class="st0">
			<path class="st1" d="M312,16.5c1.3,0,2.4,0.2,3.5,0.6c1,0.4,1.9,0.9,2.7,1.6c0.8,0.7,1.4,1.5,1.8,2.4c0.5,0.9,0.7,1.9,0.8,3
				c0,0.2,0,0.5,0,0.8c0,0.3,0,0.7,0,1s0,0.6,0,1s0,0.6,0,0.8c-0.1,1.1-0.4,2.1-0.8,3c-0.4,0.9-1,1.7-1.8,2.4
				c-0.8,0.7-1.7,1.2-2.7,1.6s-2.2,0.6-3.5,0.6s-2.4-0.2-3.5-0.6s-1.9-0.9-2.7-1.6c-0.8-0.7-1.4-1.5-1.8-2.4c-0.4-0.9-0.7-1.9-0.8-3
				c0-0.2,0-0.5-0.1-0.8s0-0.6,0-1s0-0.7,0-1c0-0.3,0-0.6,0.1-0.8c0.1-1.1,0.3-2.1,0.8-3c0.5-0.9,1.1-1.7,1.8-2.4
				c0.8-0.7,1.7-1.2,2.7-1.6C309.5,16.7,310.7,16.5,312,16.5z M316.2,24.4c-0.1-0.7-0.2-1.3-0.5-1.8c-0.3-0.5-0.6-0.9-1-1.1
				s-0.8-0.5-1.3-0.6s-0.9-0.2-1.4-0.2c-0.5,0-1,0.1-1.4,0.2s-0.9,0.3-1.3,0.6c-0.4,0.3-0.7,0.7-1,1.1c-0.3,0.5-0.4,1.1-0.5,1.8
				c0,0.2,0,0.4-0.1,0.7s0,0.6,0,0.9s0,0.6,0,0.9s0,0.5,0.1,0.7c0.1,0.7,0.2,1.3,0.5,1.8c0.3,0.5,0.6,0.9,1,1.1
				c0.4,0.3,0.8,0.5,1.3,0.6c0.5,0.1,0.9,0.2,1.4,0.2c0.5,0,1-0.1,1.4-0.2c0.5-0.1,0.9-0.3,1.3-0.6s0.7-0.7,1-1.1
				c0.3-0.5,0.4-1.1,0.5-1.8c0-0.2,0-0.4,0-0.7s0-0.6,0-0.9s0-0.6,0-0.9S316.2,24.6,316.2,24.4z"/>
		</g>
		<g class="st0">
			<path class="st1" d="M329.9,34.7c-0.2-0.2-0.3-0.4-0.4-0.6l-7-16.1c0-0.1,0-0.2,0-0.2c0-0.3,0.1-0.5,0.3-0.7s0.4-0.3,0.7-0.3h2.6
				c0.3,0,0.6,0.1,0.8,0.3c0.2,0.2,0.3,0.4,0.4,0.6l4.6,10.8l4.6-10.8c0.1-0.2,0.2-0.4,0.4-0.6s0.4-0.3,0.8-0.3h2.6
				c0.3,0,0.5,0.1,0.7,0.3s0.3,0.4,0.3,0.7c0,0.1,0,0.2,0,0.2l-7,16.1c-0.1,0.2-0.2,0.4-0.4,0.6c-0.2,0.2-0.4,0.3-0.8,0.3h-2.3
				C330.4,35,330.1,34.9,329.9,34.7z"/>
			<path class="st1" d="M348.3,10.2c0.3,0,0.5,0.1,0.7,0.3s0.3,0.4,0.3,0.7v2.7c0,0.3-0.1,0.5-0.3,0.7s-0.4,0.3-0.7,0.3h-3
				c-0.3,0-0.5-0.1-0.7-0.3s-0.3-0.4-0.3-0.7v-2.7c0-0.3,0.1-0.5,0.3-0.7s0.4-0.3,0.7-0.3H348.3z M349.1,34.1c0,0.3-0.1,0.5-0.3,0.7
				c-0.2,0.2-0.4,0.3-0.7,0.3h-2.7c-0.3,0-0.5-0.1-0.7-0.3s-0.3-0.4-0.3-0.7V17.8c0-0.3,0.1-0.5,0.3-0.7s0.4-0.3,0.7-0.3h2.7
				c0.3,0,0.5,0.1,0.7,0.3c0.2,0.2,0.3,0.4,0.3,0.7V34.1z"/>
			<path class="st1" d="M360.9,16.5c0.7,0,1.4,0.1,1.9,0.2s1.1,0.3,1.5,0.5c0.4,0.2,0.8,0.4,1.1,0.7c0.3,0.2,0.5,0.5,0.7,0.7v-7.4
				c0-0.3,0.1-0.5,0.3-0.7c0.2-0.2,0.4-0.3,0.7-0.3h2.7c0.3,0,0.5,0.1,0.7,0.3c0.2,0.2,0.3,0.4,0.3,0.7v22.9c0,0.3-0.1,0.5-0.3,0.7
				c-0.2,0.2-0.4,0.3-0.7,0.3h-2.7c-0.3,0-0.5-0.1-0.7-0.3c-0.2-0.2-0.3-0.4-0.3-0.7v-0.8c-0.2,0.2-0.4,0.4-0.7,0.7
				c-0.3,0.2-0.7,0.5-1.1,0.7c-0.4,0.2-0.9,0.4-1.5,0.5s-1.2,0.2-1.9,0.2c-1.2,0-2.2-0.2-3.2-0.7c-0.9-0.5-1.7-1.1-2.4-1.8
				c-0.7-0.8-1.2-1.6-1.6-2.6c-0.4-1-0.6-2-0.6-3.1c0-0.3,0-0.8,0-1.2s0-0.9,0-1.2c0-1.1,0.3-2.1,0.6-3.1s0.9-1.9,1.6-2.6
				c0.7-0.8,1.5-1.4,2.4-1.8C358.7,16.7,359.7,16.5,360.9,16.5z M357.6,25c-0.1,0.7-0.1,1.3,0,2c0.1,1.5,0.6,2.6,1.4,3.3
				c0.8,0.7,1.8,1,2.9,1s2.1-0.3,2.9-1c0.8-0.7,1.2-1.6,1.3-2.9c0-0.3,0.1-0.8,0.1-1.3c0-0.5,0-1-0.1-1.3c-0.1-1.2-0.6-2.2-1.3-2.9
				s-1.7-1-2.9-1s-2.1,0.3-2.9,1C358.2,22.4,357.8,23.4,357.6,25z"/>
			<path class="st1" d="M374.6,25.9c0-1.3,0.2-2.5,0.6-3.7c0.4-1.2,1-2.2,1.7-3c0.7-0.8,1.6-1.5,2.7-2c1.1-0.5,2.2-0.7,3.5-0.7
				s2.5,0.2,3.5,0.7c1.1,0.5,2,1.1,2.7,1.9s1.3,1.7,1.7,2.8c0.4,1.1,0.6,2.2,0.6,3.4V27c0,0.3-0.1,0.5-0.3,0.7
				c-0.2,0.2-0.4,0.3-0.7,0.3h-11.7c0,0.5,0.1,1,0.3,1.4c0.2,0.4,0.5,0.8,0.9,1c0.4,0.3,0.8,0.5,1.3,0.6c0.5,0.1,1,0.2,1.5,0.2
				c0.7,0,1.4-0.1,1.8-0.2c0.5-0.2,0.8-0.3,1.2-0.6c0.3-0.2,0.5-0.3,0.6-0.4c0.2-0.1,0.4-0.1,0.7-0.1h2.8c0.3,0,0.5,0.1,0.7,0.3
				c0.2,0.2,0.3,0.4,0.3,0.7c0,0.3-0.2,0.7-0.5,1.3c-0.3,0.5-0.8,1-1.5,1.5s-1.5,0.9-2.5,1.3c-1,0.3-2.1,0.5-3.4,0.5
				s-2.5-0.2-3.5-0.7c-1.1-0.5-2-1.1-2.7-1.9c-0.7-0.8-1.3-1.8-1.7-3C374.8,28.6,374.6,27.3,374.6,25.9z M383.2,20.7
				c-0.7,0-1.3,0.1-1.7,0.3c-0.5,0.2-0.9,0.5-1.2,0.8c-0.3,0.3-0.6,0.7-0.8,1c-0.2,0.4-0.3,0.8-0.3,1.1h7.9c0-0.3-0.1-0.7-0.3-1.1
				c-0.1-0.4-0.3-0.7-0.6-1c-0.3-0.3-0.7-0.6-1.2-0.8C384.5,20.8,383.9,20.7,383.2,20.7z"/>
		</g>
		<g class="st0">
			<path class="st1" d="M404,21.1c-1.4,0-2.4,0.3-3,0.9c-0.6,0.6-0.9,1.6-0.9,3v9.1c0,0.3-0.1,0.5-0.3,0.7s-0.4,0.3-0.7,0.3h-2.7
				c-0.3,0-0.5-0.1-0.7-0.3c-0.2-0.2-0.3-0.4-0.3-0.7V17.8c0-0.3,0.1-0.5,0.3-0.7c0.2-0.2,0.4-0.3,0.7-0.3h2.7
				c0.3,0,0.5,0.1,0.7,0.3s0.3,0.4,0.3,0.7v0.8c0.6-0.6,1.3-1,1.9-1.3c0.7-0.3,1.6-0.5,2.7-0.5h1.6c0.3,0,0.5,0.1,0.7,0.3
				s0.3,0.4,0.3,0.7v2.3c0,0.3-0.1,0.5-0.3,0.7s-0.4,0.3-0.7,0.3H404z"/>
		</g>
		<g class="st0">
			<path class="st1" d="M416.8,19.7c0.1-1.3,0.3-2.5,0.8-3.7c0.4-1.2,1.1-2.2,1.9-3c0.8-0.8,1.9-1.5,3.1-2c1.3-0.5,2.7-0.8,4.5-0.8
				c1.7,0,3.2,0.2,4.4,0.7c1.3,0.5,2.3,1.2,3.1,2c0.8,0.9,1.5,1.9,1.9,3s0.7,2.4,0.8,3.7c0,0.4,0,0.9,0.1,1.5c0,0.5,0,1.1,0,1.7
				s0,1.1,0,1.7c0,0.5,0,1-0.1,1.5c-0.1,1.3-0.3,2.4-0.7,3.6c-0.4,1.1-1,2.1-1.8,2.9l2.6,3.8c0.1,0.1,0.1,0.2,0.1,0.3
				c0,0.2,0,0.4-0.2,0.6s-0.3,0.2-0.5,0.2h-3.3c-0.4,0-0.7-0.1-0.9-0.3c-0.2-0.2-0.4-0.4-0.5-0.5l-1.1-1.6c-0.6,0.2-1.2,0.3-1.9,0.4
				c-0.7,0.1-1.4,0.1-2.1,0.1c-1.7,0-3.2-0.2-4.5-0.7c-1.3-0.5-2.3-1.2-3.1-2c-0.8-0.8-1.5-1.9-1.9-3c-0.4-1.2-0.7-2.4-0.8-3.7
				c0-0.4,0-0.9-0.1-1.5c0-0.5,0-1.1,0-1.7s0-1.1,0-1.7C416.7,20.6,416.7,20.1,416.8,19.7z M432.6,19.9c-0.1-1.7-0.6-3-1.6-3.9
				c-1-0.9-2.3-1.4-3.9-1.4c-1.6,0-2.9,0.5-3.9,1.4c-1,0.9-1.5,2.2-1.6,3.9c0,0.9-0.1,1.9-0.1,3c0,1.1,0,2.1,0.1,3
				c0.1,1.7,0.6,3,1.6,3.9c1,0.9,2.3,1.4,3.9,1.4c1.6,0,2.9-0.5,3.9-1.4c1-0.9,1.5-2.2,1.6-3.9c0-0.9,0.1-1.9,0.1-3
				C432.7,21.7,432.6,20.7,432.6,19.9z"/>
			<path class="st1" d="M441.5,17.8c0-0.3,0.1-0.5,0.3-0.7s0.4-0.3,0.7-0.3h2.7c0.3,0,0.5,0.1,0.7,0.3c0.2,0.2,0.3,0.4,0.3,0.7v8.9
				c0,1.4,0.3,2.5,0.9,3.4c0.6,0.8,1.6,1.3,2.9,1.3c1.2,0,2.2-0.4,2.8-1.3c0.7-0.8,1-2,1-3.4v-8.9c0-0.3,0.1-0.5,0.3-0.7
				c0.2-0.2,0.4-0.3,0.7-0.3h2.7c0.3,0,0.5,0.1,0.7,0.3c0.2,0.2,0.3,0.4,0.3,0.7v16.3c0,0.3-0.1,0.5-0.3,0.7
				c-0.2,0.2-0.4,0.3-0.7,0.3h-2.7c-0.3,0-0.5-0.1-0.7-0.3c-0.2-0.2-0.3-0.4-0.3-0.7v-0.8c-0.5,0.5-1.2,1-2,1.4s-1.7,0.6-2.9,0.6
				c-1.4,0-2.6-0.2-3.5-0.7c-0.9-0.4-1.7-1-2.2-1.8s-1-1.6-1.2-2.6c-0.2-1-0.3-2-0.3-3.1V17.8z"/>
			<path class="st1" d="M463,21.3c0.1-0.5,0.3-1,0.6-1.6c0.3-0.6,0.8-1.1,1.4-1.6c0.6-0.5,1.4-0.9,2.3-1.2s1.9-0.5,3.1-0.5
				c1.2,0,2.3,0.2,3.2,0.5s1.8,0.8,2.5,1.4c0.7,0.6,1.2,1.4,1.6,2.3s0.6,2,0.6,3.2v10.3c0,0.3-0.1,0.5-0.3,0.7s-0.4,0.3-0.7,0.3
				h-2.7c-0.3,0-0.5-0.1-0.7-0.3c-0.2-0.2-0.3-0.4-0.3-0.7v-1.2c-0.5,0.7-1.2,1.3-2.1,1.7c-0.9,0.5-2.1,0.7-3.5,0.7
				c-1,0-1.9-0.1-2.7-0.4c-0.8-0.3-1.5-0.6-2-1.1c-0.5-0.5-0.9-1.1-1.2-1.7c-0.3-0.7-0.4-1.4-0.4-2.2c0-1.6,0.6-2.9,1.7-3.8
				c1.1-0.9,2.7-1.5,4.6-1.9l5.7-1c0-1-0.3-1.6-0.9-2c-0.6-0.4-1.4-0.6-2.3-0.6c-0.6,0-1,0.1-1.4,0.2c-0.3,0.2-0.6,0.4-0.9,0.7
				c-0.2,0.2-0.4,0.3-0.6,0.4c-0.2,0.1-0.4,0.1-0.6,0.1h-3.2c-0.2,0-0.4-0.1-0.6-0.2S462.9,21.6,463,21.3z M468.8,31.2
				c0.8,0,1.5-0.1,2.1-0.3c0.6-0.2,1.1-0.5,1.6-0.9c0.4-0.4,0.7-0.8,0.9-1.3s0.3-0.9,0.3-1.4v-0.3l-4.7,0.8c-1,0.2-1.6,0.4-2.1,0.7
				c-0.4,0.3-0.6,0.7-0.6,1.3c0,0.5,0.2,0.8,0.8,1.1C467.5,31.1,468.1,31.2,468.8,31.2z"/>
			<path class="st1" d="M487.5,34.1c0,0.3-0.1,0.5-0.3,0.7c-0.2,0.2-0.4,0.3-0.7,0.3h-2.7c-0.3,0-0.5-0.1-0.7-0.3s-0.3-0.4-0.3-0.7
				V11.2c0-0.3,0.1-0.5,0.3-0.7s0.4-0.3,0.7-0.3h2.7c0.3,0,0.5,0.1,0.7,0.3c0.2,0.2,0.3,0.4,0.3,0.7V34.1z"/>
			<path class="st1" d="M496,10.2c0.3,0,0.5,0.1,0.7,0.3c0.2,0.2,0.3,0.4,0.3,0.7v2.7c0,0.3-0.1,0.5-0.3,0.7
				c-0.2,0.2-0.4,0.3-0.7,0.3h-3c-0.3,0-0.5-0.1-0.7-0.3c-0.2-0.2-0.3-0.4-0.3-0.7v-2.7c0-0.3,0.1-0.5,0.3-0.7
				c0.2-0.2,0.4-0.3,0.7-0.3H496z M496.8,34.1c0,0.3-0.1,0.5-0.3,0.7c-0.2,0.2-0.4,0.3-0.7,0.3h-2.7c-0.3,0-0.5-0.1-0.7-0.3
				s-0.3-0.4-0.3-0.7V17.8c0-0.3,0.1-0.5,0.3-0.7s0.4-0.3,0.7-0.3h2.7c0.3,0,0.5,0.1,0.7,0.3c0.2,0.2,0.3,0.4,0.3,0.7V34.1z"/>
			<path class="st1" d="M507.7,28.5c0,0.7,0.2,1.3,0.6,1.7s1.1,0.6,2.1,0.6h2.1c0.3,0,0.5,0.1,0.7,0.3c0.2,0.2,0.3,0.4,0.3,0.7v2.3
				c0,0.3-0.1,0.5-0.3,0.7c-0.2,0.2-0.4,0.3-0.7,0.3H510c-2.2,0-3.9-0.5-5-1.6c-1.2-1.1-1.8-2.7-1.8-4.9v-7.5h-2.3
				c-0.3,0-0.5-0.1-0.7-0.3s-0.3-0.4-0.3-0.7v-2.3c0-0.3,0.1-0.5,0.3-0.7s0.4-0.3,0.7-0.3h2.3v-5.7c0-0.3,0.1-0.5,0.3-0.7
				s0.4-0.3,0.7-0.3h2.7c0.3,0,0.5,0.1,0.7,0.3c0.2,0.2,0.3,0.4,0.3,0.7v5.7h4.5c0.3,0,0.5,0.1,0.7,0.3s0.3,0.4,0.3,0.7v2.3
				c0,0.3-0.1,0.5-0.3,0.7s-0.4,0.3-0.7,0.3h-4.5V28.5z"/>
		</g>
		<g class="st0">
			<path class="st1" d="M522.5,34l-6.9-16c0-0.1,0-0.2,0-0.2c0-0.3,0.1-0.5,0.3-0.7s0.4-0.3,0.7-0.3h2.6c0.3,0,0.5,0.1,0.7,0.3
				c0.2,0.2,0.3,0.4,0.4,0.6l4.6,10.8l4.6-10.8c0.1-0.2,0.2-0.4,0.4-0.6c0.2-0.2,0.5-0.3,0.7-0.3h2.6c0.3,0,0.5,0.1,0.7,0.3
				c0.2,0.2,0.3,0.4,0.3,0.7c0,0.1,0,0.2,0,0.2l-9.8,22.8c-0.1,0.2-0.2,0.4-0.4,0.6c-0.2,0.2-0.5,0.3-0.7,0.3h-2.6
				c-0.3,0-0.5-0.1-0.7-0.3c-0.2-0.2-0.3-0.4-0.3-0.7c0-0.1,0-0.2,0-0.2L522.5,34z"/>
		</g>
		<g class="st0">
			<path class="st2" d="M276,48.4c0,0.5,0,0.9,0,1.2s0,0.8,0,1.2c0,0.7-0.1,1.2-0.3,1.8c-0.2,0.5-0.5,1-0.9,1.3s-0.8,0.6-1.4,0.8
				c-0.5,0.2-1.1,0.3-1.8,0.3h-3.7c-0.1,0-0.2,0-0.3-0.1c-0.1-0.1-0.1-0.2-0.1-0.3V44.6c0-0.1,0-0.2,0.1-0.3
				c0.1-0.1,0.2-0.1,0.3-0.1h3.6c0.6,0,1.2,0.1,1.8,0.3c0.5,0.2,1,0.5,1.4,0.8s0.7,0.8,0.9,1.3C275.9,47.2,276,47.8,276,48.4z
				 M274.5,48.5c0-0.4-0.1-0.7-0.2-1.1c-0.1-0.3-0.3-0.7-0.5-0.9c-0.2-0.3-0.6-0.5-0.9-0.6s-0.9-0.2-1.4-0.2H269v8.1h2.5
				c0.6,0,1-0.1,1.4-0.2c0.4-0.2,0.7-0.4,0.9-0.6c0.2-0.3,0.4-0.6,0.5-0.9c0.1-0.3,0.2-0.7,0.2-1.1c0-0.2,0-0.4,0-0.6
				c0-0.2,0-0.4,0-0.5s0-0.3,0-0.5C274.5,48.9,274.5,48.7,274.5,48.5z"/>
		</g>
		<g class="st0">
			<path class="st2" d="M297.3,52.7h-5.4l-0.8,2.1c0,0.1-0.1,0.2-0.2,0.3c-0.1,0.1-0.2,0.1-0.4,0.1h-0.6c-0.1,0-0.2,0-0.2-0.1
				c-0.1-0.1-0.1-0.1-0.1-0.2c0-0.1,0-0.1,0.1-0.2l3.8-9.9c0.1-0.1,0.1-0.2,0.2-0.3c0.1-0.1,0.3-0.2,0.5-0.2h0.9
				c0.2,0,0.4,0.1,0.5,0.2c0.1,0.1,0.2,0.2,0.2,0.3l3.8,9.9c0,0.1,0.1,0.2,0.1,0.2c0,0.1,0,0.2-0.1,0.2c-0.1,0.1-0.1,0.1-0.2,0.1
				h-0.6c-0.2,0-0.4,0-0.4-0.1c-0.1-0.1-0.1-0.2-0.2-0.3L297.3,52.7z M292.4,51.2h4.3l-2.2-5.6L292.4,51.2z"/>
			<path class="st2" d="M318.3,44.2c0.1,0,0.2,0,0.3,0.1c0.1,0.1,0.1,0.2,0.1,0.3v0.6c0,0.1,0,0.2-0.1,0.3c-0.1,0.1-0.2,0.1-0.3,0.1
				h-2.9v9.1c0,0.1,0,0.2-0.1,0.3c-0.1,0.1-0.2,0.1-0.3,0.1h-0.6c-0.1,0-0.2,0-0.3-0.1c-0.1-0.1-0.1-0.2-0.1-0.3v-9.1H311
				c-0.1,0-0.2,0-0.3-0.1c-0.1-0.1-0.1-0.2-0.1-0.3v-0.6c0-0.1,0-0.2,0.1-0.3c0.1-0.1,0.2-0.1,0.3-0.1H318.3z"/>
		</g>
		<g class="st0">
			<path class="st2" d="M339.6,52.7h-5.4l-0.8,2.1c0,0.1-0.1,0.2-0.2,0.3c-0.1,0.1-0.2,0.1-0.4,0.1h-0.6c-0.1,0-0.2,0-0.2-0.1
				c-0.1-0.1-0.1-0.1-0.1-0.2c0-0.1,0-0.1,0.1-0.2l3.8-9.9c0.1-0.1,0.1-0.2,0.2-0.3c0.1-0.1,0.3-0.2,0.5-0.2h0.9
				c0.2,0,0.4,0.1,0.5,0.2c0.1,0.1,0.2,0.2,0.2,0.3l3.8,9.9c0,0.1,0.1,0.2,0.1,0.2c0,0.1,0,0.2-0.1,0.2c-0.1,0.1-0.1,0.1-0.2,0.1
				H341c-0.2,0-0.4,0-0.4-0.1c-0.1-0.1-0.1-0.2-0.2-0.3L339.6,52.7z M334.7,51.2h4.3l-2.2-5.6L334.7,51.2z"/>
		</g>
		<g class="st0">
			<path class="st2" d="M373.1,48.3c0,0.5,0,0.9,0,1.3s0,0.8,0,1.3c0,0.9,0.3,1.6,0.8,2.1c0.5,0.5,1.2,0.8,2.1,0.8
				c0.5,0,0.9-0.1,1.3-0.2c0.3-0.1,0.6-0.3,0.9-0.5s0.4-0.4,0.5-0.7s0.2-0.5,0.3-0.8c0-0.1,0.1-0.2,0.2-0.3c0.1-0.1,0.2-0.1,0.2-0.1
				h0.7c0.1,0,0.2,0,0.2,0.1c0.1,0.1,0.1,0.1,0.1,0.2c0,0.3-0.1,0.7-0.3,1.1c-0.2,0.4-0.4,0.8-0.8,1.2c-0.3,0.4-0.8,0.7-1.3,0.9
				c-0.5,0.2-1.2,0.4-2,0.4c-0.7,0-1.3-0.1-1.8-0.3c-0.5-0.2-1-0.5-1.4-0.9c-0.4-0.4-0.7-0.8-0.9-1.3c-0.2-0.5-0.3-1.1-0.3-1.7
				c0-0.9,0-1.9,0-2.8c0-0.6,0.1-1.2,0.3-1.7c0.2-0.5,0.5-1,0.9-1.3c0.4-0.4,0.8-0.7,1.4-0.9c0.5-0.2,1.1-0.3,1.8-0.3
				c0.8,0,1.4,0.1,2,0.4c0.5,0.2,1,0.5,1.3,0.9c0.3,0.4,0.6,0.7,0.8,1.2c0.2,0.4,0.3,0.8,0.3,1.1c0,0.1,0,0.2-0.1,0.2
				c-0.1,0.1-0.1,0.1-0.2,0.1h-0.7c-0.1,0-0.2,0-0.2-0.1c-0.1-0.1-0.1-0.1-0.2-0.3c-0.1-0.3-0.2-0.5-0.3-0.8
				c-0.1-0.3-0.3-0.5-0.5-0.7s-0.5-0.4-0.9-0.5c-0.3-0.1-0.8-0.2-1.3-0.2c-0.9,0-1.6,0.3-2.1,0.8C373.4,46.8,373.1,47.5,373.1,48.3z
				"/>
		</g>
		<g class="st0">
			<path class="st2" d="M401.5,52.7h-5.4l-0.8,2.1c0,0.1-0.1,0.2-0.2,0.3c-0.1,0.1-0.2,0.1-0.4,0.1h-0.6c-0.1,0-0.2,0-0.2-0.1
				c-0.1-0.1-0.1-0.1-0.1-0.2c0-0.1,0-0.1,0.1-0.2l3.8-9.9c0.1-0.1,0.1-0.2,0.2-0.3c0.1-0.1,0.3-0.2,0.5-0.2h0.9
				c0.2,0,0.4,0.1,0.5,0.2c0.1,0.1,0.2,0.2,0.2,0.3l3.8,9.9c0,0.1,0.1,0.2,0.1,0.2c0,0.1,0,0.2-0.1,0.2c-0.1,0.1-0.1,0.1-0.2,0.1
				H403c-0.2,0-0.4,0-0.4-0.1c-0.1-0.1-0.1-0.2-0.2-0.3L401.5,52.7z M396.7,51.2h4.3l-2.2-5.6L396.7,51.2z"/>
			<path class="st2" d="M422.6,44.2c0.1,0,0.2,0,0.3,0.1c0.1,0.1,0.1,0.2,0.1,0.3v0.6c0,0.1,0,0.2-0.1,0.3c-0.1,0.1-0.2,0.1-0.3,0.1
				h-2.9v9.1c0,0.1,0,0.2-0.1,0.3c-0.1,0.1-0.2,0.1-0.3,0.1h-0.6c-0.1,0-0.2,0-0.3-0.1c-0.1-0.1-0.1-0.2-0.1-0.3v-9.1h-2.9
				c-0.1,0-0.2,0-0.3-0.1c-0.1-0.1-0.1-0.2-0.1-0.3v-0.6c0-0.1,0-0.2,0.1-0.3c0.1-0.1,0.2-0.1,0.3-0.1H422.6z"/>
		</g>
		<g class="st0">
			<path class="st2" d="M443.9,52.7h-5.4l-0.8,2.1c0,0.1-0.1,0.2-0.2,0.3c-0.1,0.1-0.2,0.1-0.4,0.1h-0.6c-0.1,0-0.2,0-0.2-0.1
				c-0.1-0.1-0.1-0.1-0.1-0.2c0-0.1,0-0.1,0.1-0.2l3.8-9.9c0.1-0.1,0.1-0.2,0.2-0.3c0.1-0.1,0.3-0.2,0.5-0.2h0.9
				c0.2,0,0.4,0.1,0.5,0.2c0.1,0.1,0.2,0.2,0.2,0.3l3.8,9.9c0,0.1,0.1,0.2,0.1,0.2c0,0.1,0,0.2-0.1,0.2c-0.1,0.1-0.1,0.1-0.2,0.1
				h-0.6c-0.2,0-0.4,0-0.4-0.1c-0.1-0.1-0.1-0.2-0.2-0.3L443.9,52.7z M439,51.2h4.3l-2.2-5.6L439,51.2z"/>
		</g>
		<g class="st0">
			<path class="st2" d="M467.1,53.7c0.1,0,0.2,0,0.3,0.1c0.1,0.1,0.1,0.2,0.1,0.3v0.6c0,0.1,0,0.2-0.1,0.3c-0.1,0.1-0.2,0.1-0.3,0.1
				h-6.4c-0.1,0-0.2,0-0.3-0.1c-0.1-0.1-0.1-0.2-0.1-0.3V44.6c0-0.1,0-0.2,0.1-0.3c0.1-0.1,0.2-0.1,0.3-0.1h0.6c0.1,0,0.2,0,0.3,0.1
				c0.1,0.1,0.1,0.2,0.1,0.3v9.1H467.1z"/>
		</g>
		<g class="st0">
			<path class="st2" d="M481.1,48.3c0-0.6,0.1-1.1,0.3-1.7c0.2-0.5,0.5-1,0.8-1.3s0.8-0.7,1.3-0.9c0.5-0.2,1.1-0.3,1.8-0.3
				s1.3,0.1,1.8,0.3c0.5,0.2,1,0.5,1.3,0.9c0.4,0.4,0.6,0.8,0.8,1.3c0.2,0.5,0.3,1.1,0.3,1.7c0,0.9,0,1.9,0,2.8
				c0,0.6-0.1,1.1-0.3,1.7c-0.2,0.5-0.5,1-0.8,1.4c-0.4,0.4-0.8,0.7-1.3,0.9c-0.5,0.2-1.1,0.3-1.8,0.3s-1.3-0.1-1.8-0.3
				c-0.5-0.2-1-0.5-1.3-0.9c-0.4-0.4-0.6-0.8-0.8-1.4c-0.2-0.5-0.3-1.1-0.3-1.7C481.1,50.1,481.1,49.2,481.1,48.3z M488.3,48.3
				c0-0.5-0.1-0.9-0.2-1.3c-0.1-0.4-0.3-0.7-0.6-0.9c-0.3-0.2-0.5-0.4-0.9-0.5c-0.3-0.1-0.7-0.2-1.1-0.2c-0.4,0-0.8,0.1-1.1,0.2
				c-0.3,0.1-0.6,0.3-0.9,0.5c-0.2,0.2-0.4,0.5-0.6,0.9s-0.2,0.8-0.2,1.3c0,0.5,0,0.9,0,1.3s0,0.8,0,1.3c0,0.5,0.1,0.9,0.2,1.3
				s0.3,0.7,0.6,0.9s0.5,0.4,0.9,0.5c0.3,0.1,0.7,0.2,1.1,0.2c0.4,0,0.8-0.1,1.1-0.2s0.6-0.3,0.9-0.5c0.2-0.2,0.4-0.5,0.6-0.9
				c0.1-0.4,0.2-0.8,0.2-1.3c0-0.5,0-0.9,0-1.3S488.3,48.8,488.3,48.3z"/>
			<path class="st2" d="M504.1,48.2c0-0.6,0.1-1.1,0.3-1.6c0.2-0.5,0.5-1,0.8-1.3c0.4-0.4,0.8-0.7,1.4-0.9c0.6-0.2,1.2-0.3,2-0.3
				c0.7,0,1.3,0.1,1.9,0.3c0.5,0.2,1,0.5,1.3,0.8c0.4,0.3,0.6,0.6,0.8,1c0.2,0.3,0.3,0.7,0.3,0.9c0,0.1,0,0.2-0.1,0.2
				c-0.1,0.1-0.2,0.1-0.2,0.1h-0.6c-0.3,0-0.4-0.1-0.5-0.2c-0.1-0.2-0.3-0.5-0.4-0.7s-0.4-0.4-0.6-0.6c-0.2-0.2-0.5-0.3-0.8-0.4
				c-0.3-0.1-0.7-0.1-1.1-0.1c-0.4,0-0.8,0.1-1.2,0.2c-0.4,0.1-0.7,0.3-0.9,0.5c-0.3,0.2-0.5,0.5-0.6,0.9c-0.2,0.4-0.2,0.8-0.3,1.3
				c0,0.5,0,0.9,0,1.3s0,0.8,0,1.3c0,0.5,0.1,0.9,0.3,1.3c0.2,0.4,0.4,0.7,0.6,0.9c0.3,0.2,0.6,0.4,0.9,0.5c0.4,0.1,0.8,0.2,1.2,0.2
				c0.4,0,0.8-0.1,1.2-0.2s0.7-0.3,1-0.5c0.3-0.2,0.5-0.5,0.6-0.9c0.2-0.4,0.2-0.8,0.2-1.4v-0.4h-2.3c-0.1,0-0.2,0-0.3-0.1
				c-0.1-0.1-0.1-0.2-0.1-0.3v-0.6c0-0.1,0-0.2,0.1-0.3c0.1-0.1,0.2-0.1,0.3-0.1h3.3c0.1,0,0.2,0,0.3,0.1c0.1,0.1,0.1,0.2,0.1,0.3
				V51c0,0.6-0.1,1.2-0.3,1.7c-0.2,0.5-0.5,1-0.9,1.4c-0.4,0.4-0.9,0.7-1.4,0.9c-0.6,0.2-1.2,0.3-1.9,0.3c-0.8,0-1.4-0.1-2-0.3
				c-0.6-0.2-1-0.5-1.4-0.9c-0.4-0.4-0.6-0.8-0.8-1.4c-0.2-0.5-0.3-1.1-0.3-1.7C504.1,50.1,504.1,49.1,504.1,48.2z"/>
		</g>
		<path class="st3" d="M19,51c-7.6-3.5-11.9-8.2-11.7-13.6C8,22.2,44,6.7,87.3,2.8c12-1.1,24.1-1.2,36.1-0.2
			C109,0.7,94.4,0.5,80,1.9C36.6,5.8,0.7,21.4,0,36.5C-0.3,44,7.9,50,21.5,53.7L19,51z"/>
		<path class="st4" d="M16.4,46c-2.1-1.9-3.3-4.6-3.2-7.5c0.6-14,33.9-28.3,74.1-31.9c6.2-0.6,12.3-0.8,18.2-0.8
			c10-0.1,20,0.9,29.8,2.9l0.1-0.6c-9-2.4-20.3-3.6-32.7-3.6c-5.8,0-11.9,0.3-18,0.8c-40,3.6-73.2,18-73.8,32.1
			c-0.2,3.9,2,7.4,6.5,10.4L16.4,46z"/>
		<path class="st3" d="M51.5,47.3C40.1,47.3,31,42,31,34.1S40.1,21,51.5,21c4.9-0.1,9.7,1.2,14,3.6L61,27.8
			c-2.6-1.7-5.6-2.6-8.7-2.6c-5.3,0-8.6,2.7-8.6,9S47,43,52.3,43c3.1,0,6.1-0.9,8.7-2.5l4.5,3.2C61.3,46.2,56.4,47.4,51.5,47.3"/>
		<polygon class="st3" points="102.9,46.5 102.9,31.1 94.1,46.5 86.4,46.5 76.4,31.1 76.4,46.5 68.7,46.5 68.7,21.8 83.6,21.8 
			93.1,36.7 101.7,21.8 114.7,21.8 114.7,46.5 		"/>
		<path class="st3" d="M135.2,47.3c-8.6,0-14-2.9-16.1-4.9l4.6-3c3.4,2.4,7.4,3.8,11.5,3.9c3.8,0,5.7-0.7,5.7-1.9
			c0-2.2-4.5-2.7-9.1-3.7c-6.9-1.5-12-3.3-12-8.1c0-5.8,7-8.7,15.9-8.7c6.4,0,10.7,1.3,14.4,3.9l-4.5,2.8c-2.6-1.8-7.3-2.8-9.8-2.8
			c-4.1,0-5.7,0.9-5.7,2c0,1.8,3.6,2,9.3,3.3c7.1,1.6,12.4,3.8,12.4,8.6C151.8,44,145.5,47.3,135.2,47.3"/>
		<path class="st3" d="M29.6,54.9c-0.1,0.2-0.1,0.3-0.1,0.5c-0.4,0.2-0.8,0.3-1.2,0.3c-1.1,0.1-2.1-0.7-2.2-1.8c0-0.1,0-0.1,0-0.2
			c-0.1-1.2,0.8-2.2,2-2.3c0.1,0,0.3,0,0.4,0c0.4,0,0.8,0.1,1.2,0.3c-0.1,0.2-0.1,0.4-0.1,0.6h-0.1c-0.2-0.3-0.6-0.5-1-0.5
			c-0.6,0-1.4,0.5-1.4,1.8s0.7,1.7,1.4,1.7C28.9,55.3,29.3,55.1,29.6,54.9L29.6,54.9z"/>
		<path class="st3" d="M30.3,53.1c0-0.7,0-1.1,0-1.7c0.4,0,0.7,0,1.1,0c0.6,0,1.1,0,1.2,0c0,0.1,0,0.2,0,0.2c0,0.1,0,0.2,0,0.3
			l-1.4-0.1c0,0.4,0,0.9,0,1.3c0.5,0,0.9,0,1.4,0c0,0.1,0,0.2,0,0.3c0,0.1,0,0.2,0,0.2c-0.5,0-0.9-0.1-1.4-0.1v0.8
			c0,0.2,0,0.5,0,0.7c0.5,0,0.9,0,1.4-0.1c0,0.1,0,0.2,0,0.3c0,0.1,0,0.2,0,0.3c-0.2,0-0.5,0-1,0c-1,0-1.1,0-1.3,0c0-0.5,0-1,0-1.7
			L30.3,53.1z"/>
		<path class="st3" d="M33.4,51.5c0.2,0,0.4,0,0.5,0c0.9,1,1.7,1.9,2.6,2.8c0-1,0-2.6,0-2.8c0.2,0,0.4,0,0.5,0
			C37,53.2,37,54,37,55.6c-0.1,0-0.2,0-0.2,0c-0.1,0-0.2,0-0.2,0c-0.8-1-1.7-1.9-2.6-2.9c0,0.5,0,0.9,0,1.4c0,1,0,1.3,0,1.5h-0.3
			c-0.1,0-0.2,0-0.3,0c0-0.2,0.1-1.7,0.1-2.9C33.4,52.1,33.4,51.8,33.4,51.5"/>
		<path class="st3" d="M38.7,52.5c0-0.2,0-0.4,0-0.5c-0.2,0-0.7,0-1.1,0.1c0-0.1,0-0.2,0-0.3c0-0.1,0-0.2,0-0.3c0.5,0,0.8,0,1.5,0
			s1,0,1.5,0c0,0.1,0,0.2,0,0.3c0,0.1,0,0.2,0,0.3c-0.3,0-0.8-0.1-1.1-0.1c0,0.1,0,0.3,0,0.5v1.5c0,0.7,0,1.1,0,1.7
			c-0.1,0-0.3,0-0.5,0s-0.4,0-0.5,0c0-0.5,0-1,0-1.7L38.7,52.5z"/>
		<path class="st3" d="M41.3,53.1c0-0.7,0-1.1,0-1.7c0.4,0,0.7,0,1.1,0c0.6,0,1.1,0,1.2,0c0,0.1,0,0.2,0,0.2c0,0.1,0,0.2,0,0.3
			l-1.3-0.1c0,0.4,0,0.9,0,1.3c0.5,0,0.9,0,1.4,0c0,0.1,0,0.2,0,0.3c0,0.1,0,0.2,0,0.2c-0.5,0-0.9-0.1-1.4-0.1v0.8
			c0,0.2,0,0.5,0,0.7c0.5,0,0.9,0,1.4-0.1c0,0.1,0,0.2,0,0.3c0,0.1,0,0.2,0,0.3c-0.2,0-0.5,0-1,0c-1,0-1.1,0-1.3,0c0-0.5,0-1,0-1.7
			L41.3,53.1z"/>
		<path class="st3" d="M45.3,53.7L45.3,53.7l-0.1,0.2c0,0.7,0,1.1,0,1.7c-0.1,0-0.3,0-0.5,0s-0.4,0-0.5,0c0-0.5,0-1,0-1.7v-0.8
			c0-0.7,0-1.1,0-1.7c0.1,0,0.3,0,0.5,0s0.5,0,0.9,0c0.3,0,0.7,0,1,0.2c0.3,0.2,0.4,0.5,0.4,0.8c0,0.5-0.4,1-0.9,1.1
			c0.4,0.7,0.8,1.4,1.3,2h-0.5h-0.5L45.3,53.7z M45.3,51.8c0,0.5,0,1.1,0,1.6h0.1c0.4,0,0.8-0.3,0.8-0.7c0-0.1,0-0.1,0-0.2
			C46.2,51.9,45.9,51.8,45.3,51.8"/>
		<path class="st3" d="M49.7,52.3c-0.1-0.3-0.4-0.5-0.7-0.5c-0.3,0-0.6,0.2-0.6,0.5c0,0,0,0,0,0c0,0.9,1.8,0.7,1.8,2
			c0,0.8-0.7,1.4-1.4,1.4c0,0-0.1,0-0.1,0c-0.4,0-0.7-0.1-1-0.3c0.1-0.2,0.1-0.5,0.2-0.8h0.1c0.1,0.4,0.4,0.7,0.8,0.7
			c0.3,0,0.7-0.2,0.7-0.5c0,0,0-0.1,0-0.1c0-0.9-1.8-0.7-1.8-2c0-0.7,0.5-1.3,1.2-1.3c0,0,0.1,0,0.1,0c0.4,0,0.7,0.1,1,0.3
			C49.9,51.9,49.9,52,49.7,52.3L49.7,52.3z"/>
		<path class="st3" d="M52.6,53.1c0-0.7,0-1.1,0-1.7h1.1c0.6,0,1.1,0,1.2,0c0,0.1,0,0.2,0,0.2c0,0.1,0,0.2,0,0.3l-1.3-0.1
			c0,0.4,0,0.9,0,1.3c0.5,0,0.9,0,1.4,0c0,0.1,0,0.2,0,0.3c0,0.1,0,0.2,0,0.2c-0.5,0-0.9-0.1-1.4-0.1V54c0,0.7,0,1.1,0,1.7
			c-0.1,0-0.3,0-0.5,0s-0.4,0-0.5,0c0-0.5,0-1,0-1.7L52.6,53.1z"/>
		<path class="st3" d="M57.6,51.4c1.1-0.1,2.1,0.6,2.2,1.7c0,0.1,0,0.3,0,0.4c0,1.2-1,2.2-2.2,2.1c0,0-0.1,0-0.1,0
			c-1.1,0.2-2.1-0.6-2.3-1.7c0-0.1,0-0.3,0-0.4c0-1.2,1-2.1,2.1-2.1C57.5,51.4,57.5,51.4,57.6,51.4 M57.6,51.7
			c-0.8,0-1.3,0.8-1.3,1.8c0,1.3,0.6,1.7,1.3,1.7s1.3-0.6,1.3-1.9C58.9,52.4,58.3,51.7,57.6,51.7"/>
		<path class="st3" d="M61.5,53.7L61.5,53.7l-0.1,0.2c0,0.7,0,1.1,0,1.7c-0.1,0-0.3,0-0.5,0s-0.4,0-0.5,0c0-0.5,0-1,0-1.7v-0.8
			c0-0.7,0-1.1,0-1.7c0.1,0,0.3,0,0.5,0s0.5,0,0.9,0c0.3,0,0.7,0,1,0.2c0.3,0.2,0.4,0.5,0.4,0.8c0,0.5-0.4,1-0.9,1.1
			c0.4,0.7,0.8,1.4,1.3,2H63h-0.5L61.5,53.7z M61.5,51.8c0,0.5,0,1.1,0,1.6h0.1c0.4,0,0.8-0.3,0.8-0.7c0-0.1,0-0.1,0-0.2
			C62.5,51.9,62.2,51.8,61.5,51.8"/>
		<path class="st3" d="M66.4,52.9c-0.1,0.9-0.2,1.8-0.2,2.7h-0.3c-0.1,0-0.2,0-0.3,0c0.2-1.4,0.4-2.7,0.6-4.1c0.1,0,0.2,0,0.2,0
			c0.1,0,0.2,0,0.2,0c0.4,1,0.9,2,1.4,2.9c0.5-0.9,1-1.9,1.4-2.9h0.3c0.1,0,0.2,0,0.2,0c0.2,1.4,0.4,3.3,0.5,4.1c-0.2,0-0.3,0-0.5,0
			c-0.2,0-0.3,0-0.5,0c0-0.8-0.2-1.8-0.2-2.8l0,0c-0.4,0.9-0.9,1.8-1.3,2.8h-0.2C67.3,54.7,66.8,53.8,66.4,52.9L66.4,52.9z"/>
		<path class="st3" d="M71.1,53.1c0-0.7,0-1.1,0-1.7c0.4,0,0.7,0,1.1,0c0.6,0,1.1,0,1.2,0c0,0.1,0,0.2,0,0.2c0,0.1,0,0.2,0,0.3
			l-1.3-0.1c0,0.4,0,0.9,0,1.3c0.5,0,0.9,0,1.3,0c0,0.1,0,0.2,0,0.3c0,0.1,0,0.2,0,0.2c-0.5,0-0.9-0.1-1.3-0.1c0,0.2,0,0.5,0,0.8
			s0,0.5,0,0.7c0.5,0,0.9,0,1.4-0.1c0,0.1,0,0.2,0,0.3c0,0.1,0,0.2,0,0.3c-0.2,0-0.5,0-1,0c-1,0-1.1,0-1.3,0c0-0.5,0-1,0-1.7
			L71.1,53.1z"/>
		<path class="st3" d="M74.2,53.1c0-0.7,0-1.1,0-1.7c0.1,0,0.3,0,0.5,0s0.6,0,1.1,0c1.4,0,2.3,0.4,2.3,1.9c0.1,1.1-0.8,2.1-1.9,2.2
			c0,0-0.1,0-0.1,0c-0.6,0-1,0-1.3,0s-0.4,0-0.5,0c0-0.5,0-1,0-1.7L74.2,53.1z M75,54.1c0,0.3,0,1,0,1.2h0.5c0.9,0,1.5-0.6,1.5-1.8
			c0-1-0.5-1.6-1.4-1.6c-0.2,0-0.4,0-0.6,0c0,0.1,0,0.8,0,1.2L75,54.1z"/>
		<path class="st3" d="M78.8,53.1c0-0.7,0-1.1,0-1.7c0.1,0,0.3,0,0.5,0s0.4,0,0.5,0c0,0.5,0,1,0,1.7v0.8c0,0.7,0,1.1,0,1.7
			c-0.1,0-0.3,0-0.5,0s-0.4,0-0.5,0c0-0.5,0-1,0-1.7V53.1z"/>
		<path class="st3" d="M84,54.9c-0.1,0.2-0.1,0.3-0.1,0.5c-0.4,0.2-0.8,0.3-1.2,0.3c-1.1,0.1-2.1-0.7-2.2-1.8c0-0.1,0-0.1,0-0.2
			c-0.1-1.2,0.8-2.2,2-2.3c0.1,0,0.3,0,0.4,0c0.4,0,0.8,0.1,1.2,0.3c-0.1,0.2-0.1,0.4-0.1,0.6h-0.1c-0.2-0.3-0.6-0.5-1-0.5
			c-0.6,0-1.4,0.5-1.4,1.8s0.7,1.7,1.4,1.7C83.3,55.3,83.7,55.1,84,54.9L84,54.9z"/>
		<path class="st3" d="M88,55.6h-0.5H87c-0.1-0.4-0.3-0.8-0.4-1.2h-1.4c-0.2,0.4-0.3,0.8-0.4,1.2c-0.1,0-0.2,0-0.3,0h-0.3
			c0.3-0.7,1.2-2.8,1.7-4.2c0.1,0,0.1,0,0.2,0c0.1,0,0.2,0,0.2,0C86.9,52.8,87.6,54.6,88,55.6 M86.4,54c-0.2-0.5-0.3-1-0.5-1.4
			c-0.2,0.5-0.4,0.9-0.6,1.4H86.4z"/>
		<path class="st3" d="M89.6,53.7L89.6,53.7v0.2c0,0.7,0,1.1,0,1.7c-0.1,0-0.3,0-0.5,0s-0.4,0-0.5,0c0-0.5,0-1,0-1.7v-0.8
			c0-0.7,0-1.1,0-1.7c0.1,0,0.3,0,0.5,0s0.5,0,0.9,0c0.3,0,0.7,0,1,0.2c0.3,0.2,0.4,0.5,0.4,0.8c0,0.5-0.4,1-0.9,1.1
			c0.4,0.7,0.8,1.4,1.3,2h-0.5h-0.5L89.6,53.7z M89.6,51.8c0,0.5,0,1.1,0,1.6h0.1c0.4,0,0.8-0.3,0.8-0.7c0-0.1,0-0.1,0-0.2
			C90.5,51.9,90.2,51.8,89.6,51.8"/>
		<path class="st3" d="M92.2,53.1c0-0.7,0-1.1,0-1.7h1.1c0.6,0,1.1,0,1.2,0c0,0.1,0,0.2,0,0.2c0,0.1,0,0.2,0,0.3l-1.3-0.1
			c0,0.4,0,0.9,0,1.3c0.5,0,0.9,0,1.4,0c0,0.1,0,0.2,0,0.3c0,0.1,0,0.2,0,0.2c-0.5,0-0.9-0.1-1.4-0.1v0.8c0,0.2,0,0.5,0,0.7
			c0.5,0,0.9,0,1.4-0.1c0,0.1,0,0.2,0,0.3c0,0.1,0,0.2,0,0.3c-0.2,0-0.5,0-1,0c-1,0-1.1,0-1.3,0c0-0.5,0-1,0-1.7L92.2,53.1z"/>
		<path class="st3" d="M99.1,55.2c-0.4,0.3-0.9,0.5-1.3,0.5c-0.5,0.1-1-0.3-1.1-0.9c0,0,0-0.1,0-0.1c0-0.6,0.4-0.9,1.1-1.3
			c-0.2-0.3-0.4-0.6-0.4-1c0-0.6,0.4-1,1-1c0,0,0.1,0,0.1,0c0.6,0,1,0.2,1,0.7s-0.2,0.7-0.8,1c0.3,0.4,0.6,0.8,0.9,1.1
			c0.3-0.4,0.5-0.7,0.7-1.2c0.1,0.1,0.2,0.2,0.3,0.3c-0.2,0.4-0.5,0.7-0.8,1c0.3,0.3,0.6,0.7,0.9,1c-0.3,0-0.5,0-0.7,0h-0.5
			L99.1,55.2z M98.3,55.2c0.2,0,0.5-0.1,0.6-0.2c-0.3-0.4-0.7-0.9-1-1.3c-0.3,0.1-0.4,0.4-0.4,0.7C97.5,54.8,97.9,55.2,98.3,55.2
			C98.3,55.2,98.3,55.2,98.3,55.2 M98.4,53c0.3-0.2,0.4-0.5,0.5-0.8c0-0.2-0.2-0.4-0.4-0.4c0,0,0,0,0,0c-0.2,0-0.4,0.2-0.4,0.4
			c0,0,0,0,0,0.1C98.1,52.5,98.2,52.8,98.4,53"/>
		<path class="st3" d="M103.4,52.9c-0.1,0.9-0.2,1.8-0.2,2.7h-0.3c-0.1,0-0.2,0-0.3,0c0.2-1.4,0.4-2.7,0.6-4.1c0.1,0,0.2,0,0.2,0
			c0.1,0,0.2,0,0.2,0c0.4,1,1,2,1.4,2.9c0.5-0.9,1-1.9,1.4-2.9h0.3c0.1,0,0.2,0,0.2,0c0.2,1.4,0.4,3.3,0.5,4.1c-0.2,0-0.3,0-0.5,0
			c-0.2,0-0.3,0-0.5,0c0-0.8-0.2-1.8-0.2-2.8l0,0c-0.4,0.9-0.9,1.8-1.3,2.8h-0.2C104.3,54.7,103.8,53.8,103.4,52.9L103.4,52.9z"/>
		<path class="st3" d="M108.1,53.1c0-0.7,0-1.1,0-1.7c0.4,0,0.7,0,1.1,0c0.6,0,1.1,0,1.2,0c0,0.1,0,0.2,0,0.2c0,0.1,0,0.2,0,0.3
			l-1.3-0.1c0,0.4,0,0.9,0,1.3c0.5,0,0.9,0,1.3,0c0,0.1,0,0.2,0,0.3c0,0.1,0,0.2,0,0.2c-0.4,0-0.9-0.1-1.3-0.1c0,0.2,0,0.5,0,0.8
			s0,0.5,0,0.7c0.5,0,0.9,0,1.4-0.1c0,0.1,0,0.2,0,0.3c0,0.1,0,0.2,0,0.3c-0.2,0-0.5,0-1,0c-1,0-1.1,0-1.3,0c0-0.5,0-1,0-1.7
			L108.1,53.1z"/>
		<path class="st3" d="M111.2,53.1c0-0.7,0-1.1-0.1-1.7c0.1,0,0.3,0,0.5,0s0.6,0,1.1,0c1.4,0,2.3,0.4,2.3,1.9
			c0.1,1.1-0.8,2.1-1.9,2.2c0,0-0.1,0-0.1,0c-0.6,0-1,0-1.3,0s-0.4,0-0.5,0c0-0.5,0.1-1,0.1-1.7L111.2,53.1z M112.1,54.1
			c0,0.3,0,1,0,1.2h0.5c0.9,0,1.5-0.6,1.5-1.8c0-1-0.6-1.6-1.4-1.6c-0.2,0-0.4,0-0.6,0c0,0.1,0,0.8,0,1.2L112.1,54.1z"/>
		<path class="st3" d="M115.8,53.1c0-0.7,0-1.1,0-1.7c0.1,0,0.3,0,0.5,0s0.4,0,0.5,0c0,0.5,0,1,0,1.7v0.8c0,0.7,0,1.1,0,1.7
			c-0.1,0-0.3,0-0.5,0s-0.4,0-0.5,0c0-0.5,0-1,0-1.7V53.1z"/>
		<path class="st3" d="M121,54.9c-0.1,0.2-0.1,0.3-0.1,0.5c-0.4,0.2-0.8,0.3-1.2,0.3c-1.1,0.1-2.1-0.7-2.2-1.8c0-0.1,0-0.1,0-0.2
			c-0.1-1.2,0.8-2.2,2-2.3c0.1,0,0.3,0,0.4,0c0.4,0,0.8,0.1,1.2,0.3c-0.1,0.2-0.1,0.4-0.1,0.6h-0.1c-0.2-0.3-0.6-0.5-1-0.5
			c-0.6,0-1.4,0.5-1.4,1.8s0.7,1.7,1.4,1.7C120.3,55.3,120.7,55.1,121,54.9L121,54.9z"/>
		<path class="st3" d="M125,55.6h-0.5H124c-0.1-0.4-0.3-0.8-0.4-1.2h-1.4c-0.2,0.4-0.3,0.8-0.4,1.2c-0.1,0-0.2,0-0.3,0h-0.3
			c0.3-0.7,1.2-2.8,1.7-4.2c0.1,0,0.1,0,0.2,0c0.1,0,0.2,0,0.2,0C123.9,52.8,124.5,54.6,125,55.6 M123.4,54c-0.2-0.5-0.3-1-0.5-1.4
			c-0.2,0.5-0.4,0.9-0.6,1.4H123.4z"/>
		<path class="st3" d="M125.7,53.1c0-0.7,0-1.1,0-1.7c0.1,0,0.3,0,0.5,0s0.4,0,0.5,0c0,0.5,0,1,0,1.7v0.8c0,0.7,0,1.1,0,1.7
			c-0.1,0-0.3,0-0.5,0s-0.4,0-0.5,0c0-0.5,0-1,0-1.7V53.1z"/>
		<path class="st3" d="M127.6,53.1c0-0.7,0-1.1-0.1-1.7c0.1,0,0.3,0,0.5,0c0.2,0,0.6,0,1.1,0c1.4,0,2.3,0.4,2.3,1.9
			c0.1,1.1-0.8,2.1-1.9,2.2c0,0-0.1,0-0.1,0c-0.6,0-1,0-1.3,0s-0.4,0-0.5,0c0-0.5,0.1-1,0.1-1.7V53.1z M128.5,54.1v1.2h0.5
			c0.9,0,1.5-0.6,1.5-1.8c0-1-0.5-1.6-1.4-1.6c-0.2,0-0.4,0-0.6,0L128.5,54.1L128.5,54.1z"/>
		<path class="st3" d="M135.7,52.3c-0.1-0.3-0.4-0.5-0.7-0.5c-0.3,0-0.6,0.2-0.6,0.5c0,0.9,1.8,0.7,1.8,2c0,0.8-0.7,1.4-1.4,1.4
			c0,0-0.1,0-0.1,0c-0.4,0-0.7-0.1-1-0.3c0.1-0.2,0.1-0.5,0.2-0.8h0.1c0.1,0.4,0.4,0.7,0.8,0.7c0.3,0,0.6-0.2,0.7-0.5
			c0,0,0-0.1,0-0.1c0-0.9-1.8-0.7-1.8-2c0-0.7,0.5-1.3,1.2-1.3c0.1,0,0.1,0,0.2,0c0.4,0,0.7,0.1,1,0.3c-0.1,0.2-0.1,0.4-0.2,0.6
			L135.7,52.3z"/>
		<path class="st3" d="M136.9,53.1c0-0.7,0-1.1-0.1-1.7h1.1c0.6,0,1.1,0,1.2,0c0,0.1,0,0.2,0,0.2c0,0.1,0,0.2,0,0.3l-1.4-0.1
			c0,0.4,0,0.9,0,1.3c0.5,0,0.9,0,1.4,0c0,0.1,0,0.2,0,0.3c0,0.1,0,0.2,0,0.2c-0.5,0-0.9-0.1-1.4-0.1c0,0.2,0,0.5,0,0.8s0,0.5,0,0.7
			c0.5,0,0.9,0,1.4-0.1c0,0.1,0,0.2,0,0.3c0,0.1,0,0.2,0,0.3c-0.2,0-0.5,0-1.1,0c-1,0-1.1,0-1.3,0c0-0.5,0.1-1,0.1-1.7L136.9,53.1z"
			/>
		<path class="st3" d="M140.8,53.7L140.8,53.7l-0.1,0.2c0,0.7,0,1.1,0.1,1.7c-0.1,0-0.3,0-0.5,0s-0.4,0-0.5,0c0-0.5,0.1-1,0.1-1.7
			v-0.8c0-0.7,0-1.1-0.1-1.7c0.1,0,0.3,0,0.5,0s0.5,0,0.9,0c0.3,0,0.7,0,1,0.2c0.3,0.2,0.4,0.5,0.4,0.8c0,0.5-0.4,1-0.9,1.1
			c0.4,0.7,0.8,1.4,1.3,2h-0.5h-0.5L140.8,53.7z M140.8,51.8c0,0.5,0,1.1,0,1.6h0.1c0.4,0,0.8-0.3,0.8-0.7c0-0.1,0-0.1,0-0.2
			C141.8,51.9,141.5,51.8,140.8,51.8"/>
		<path class="st3" d="M146.3,51.5c0.1,0,0.2,0,0.3,0c0.1,0,0.2,0,0.3,0c-0.4,0.9-1.2,2.8-1.6,4.1c-0.1,0-0.2,0-0.3,0
			c-0.1,0-0.2,0-0.3,0c-0.4-1-1.2-3.2-1.6-4.1h0.5c0.2,0,0.3,0,0.5,0c0.3,0.9,0.7,2,1.1,3C145.6,53.5,146,52.4,146.3,51.5"/>
		<path class="st3" d="M147.4,53.1c0-0.7,0-1.1-0.1-1.7c0.1,0,0.3,0,0.5,0s0.4,0,0.5,0c0,0.5,0,1,0,1.7v0.8c0,0.7,0,1.1,0,1.7
			c-0.1,0-0.3,0-0.5,0s-0.4,0-0.5,0c0-0.5,0.1-1,0.1-1.7V53.1z"/>
		<path class="st3" d="M152.6,54.9c-0.1,0.2-0.1,0.3-0.1,0.5c-0.4,0.2-0.8,0.3-1.2,0.3c-1.1,0.1-2.1-0.7-2.2-1.8c0-0.1,0-0.1,0-0.2
			c-0.1-1.2,0.8-2.2,2-2.3c0.1,0,0.3,0,0.4,0c0.4,0,0.8,0.1,1.2,0.3c-0.1,0.2-0.1,0.4-0.1,0.6h-0.1c-0.2-0.3-0.6-0.5-1-0.5
			c-0.6,0-1.4,0.5-1.4,1.8s0.7,1.7,1.4,1.7C151.9,55.3,152.3,55.1,152.6,54.9L152.6,54.9z"/>
		<path class="st3" d="M153.3,53.1c0-0.7,0-1.1,0-1.7h1.1c0.6,0,1.1,0,1.2,0c0,0.2,0,0.3,0,0.5l-1.4-0.1c0,0.4,0,0.9,0,1.3
			c0.5,0,0.9,0,1.4,0c0,0.1,0,0.2,0,0.3c0,0.1,0,0.1,0,0.2c-0.4,0-0.9-0.1-1.4-0.1c0,0.2,0,0.5,0,0.8s0,0.5,0,0.7
			c0.5,0,0.9,0,1.4-0.1c0,0.1,0,0.2,0,0.3c0,0.1,0,0.2,0,0.3c-0.2,0-0.5,0-1,0c-1,0-1.1,0-1.3,0c0-0.5,0-1,0-1.7L153.3,53.1z"/>
		<path class="st3" d="M158.1,52.3c-0.1-0.3-0.4-0.5-0.7-0.5c-0.3,0-0.6,0.2-0.6,0.5c0,0.9,1.8,0.7,1.8,2c0,0.8-0.7,1.4-1.4,1.4
			c-0.1,0-0.1,0-0.2,0c-0.4,0-0.7-0.1-1-0.3c0.1-0.2,0.1-0.5,0.2-0.8h0.1c0.1,0.4,0.4,0.7,0.8,0.7c0.5,0,0.7-0.3,0.7-0.6
			c0-0.9-1.8-0.7-1.8-2c0-0.7,0.6-1.3,1.2-1.3c0,0,0.1,0,0.1,0c0.4,0,0.7,0.1,1,0.3C158.3,51.9,158.2,52.1,158.1,52.3L158.1,52.3z"
			/>
		<line class="st5" x1="191.4" y1="0" x2="191.4" y2="60.7"/>
		<path class="st6" d="M252.4,9.9h3.2c0.4,0,0.7,0.3,0.7,0.7v23.5c0,0.4-0.3,0.7-0.7,0.7h-3.2c-0.4,0-0.7-0.3-0.7-0.7V10.6
			C251.7,10.2,252,9.9,252.4,9.9z"/>
		<path class="st6" d="M243,18.2h3.2c0.4,0,0.7,0.3,0.7,0.7v15.2c0,0.4-0.3,0.7-0.7,0.7H243c-0.4,0-0.7-0.3-0.7-0.7V18.9
			C242.2,18.5,242.6,18.2,243,18.2z"/>
		<path class="st6" d="M233.5,26.4h3.2c0.4,0,0.7,0.3,0.7,0.7v7c0,0.4-0.3,0.7-0.7,0.7h-3.2c-0.4,0-0.7-0.3-0.7-0.7v-7
			C232.8,26.8,233.1,26.4,233.5,26.4z"/>
	</g>
</g>
</svg>
